<?xml version="1.0" encoding="UTF-8" standalone="no"?>
<svg
   aria-hidden="true"
   role="img"
   class="iconify iconify--logos"
   width="31.88"
   height="32"
   preserveAspectRatio="xMidYMid meet"
   viewBox="0 0 256 257"
   version="1.1"
   id="svg6"
   sodipodi:docname="sj-party-logo.svg"
   xml:space="preserve"
   inkscape:version="1.3 (0e150ed6c4, 2023-07-21)"
   xmlns:inkscape="http://www.inkscape.org/namespaces/inkscape"
   xmlns:sodipodi="http://sodipodi.sourceforge.net/DTD/sodipodi-0.dtd"
   xmlns:xlink="http://www.w3.org/1999/xlink"
   xmlns="http://www.w3.org/2000/svg"
   xmlns:svg="http://www.w3.org/2000/svg"><sodipodi:namedview
     id="namedview6"
     pagecolor="#ffffff"
     bordercolor="#999999"
     borderopacity="1"
     inkscape:showpageshadow="2"
     inkscape:pageopacity="0"
     inkscape:pagecheckerboard="0"
     inkscape:deskcolor="#d1d1d1"
     inkscape:zoom="12.578125"
     inkscape:cx="-3.6968944"
     inkscape:cy="17.450932"
     inkscape:window-width="1920"
     inkscape:window-height="1017"
     inkscape:window-x="1912"
     inkscape:window-y="-8"
     inkscape:window-maximized="1"
     inkscape:current-layer="svg6" /><defs
     id="defs5"><linearGradient
       id="linearGradient7"
       inkscape:collect="always"><stop
         style="stop-color:#007bff;stop-opacity:1;"
         offset="0"
         id="stop7" /><stop
         style="stop-color:#9932cc;stop-opacity:1;"
         offset="0.56603777"
         id="stop8" /></linearGradient><linearGradient
       id="IconifyId1813088fe1fbc01fb466"
       x1="-.828%"
       x2="57.636%"
       y1="7.652%"
       y2="78.411%"><stop
         offset="0%"
         stop-color="#41D1FF"
         id="stop1" /><stop
         offset="100%"
         stop-color="#BD34FE"
         id="stop2" /></linearGradient><linearGradient
       id="IconifyId1813088fe1fbc01fb467"
       x1="43.376%"
       x2="50.316%"
       y1="2.242%"
       y2="89.03%"><stop
         offset="0%"
         stop-color="#FFEA83"
         id="stop3" /><stop
         offset="8.333%"
         stop-color="#FFDD35"
         id="stop4" /><stop
         offset="100%"
         stop-color="#FFA800"
         id="stop5" /></linearGradient><linearGradient
       inkscape:collect="always"
       xlink:href="#linearGradient7"
       id="linearGradient8"
       x1="11.211479"
       y1="132.41792"
       x2="249.14899"
       y2="132.41792"
       gradientUnits="userSpaceOnUse"
       gradientTransform="translate(0.31925466)" /></defs><rect
     style="fill:url(#linearGradient8);stroke-width:12.0908"
     id="rect7-8"
     width="237.9375"
     height="228.22371"
     x="11.530734"
     y="18.306065"
     rx="16.828901" /><path
     id="rect7"
     style="fill:#000000;fill-opacity:1;stroke-width:11.5346"
     d="M 33.204901 23.481995 C 24.306294 23.481995 17.142401 30.645888 17.142401 39.544495 L 17.142401 225.03186 C 17.142401 233.93047 24.306294 241.09436 33.204901 241.09436 L 228.18232 241.09436 C 237.08092 241.09436 244.24482 233.93047 244.24482 225.03186 L 244.24482 39.544495 C 244.24482 30.645888 237.08092 23.481995 228.18232 23.481995 L 33.204901 23.481995 z M 88.560919 45.065979 C 98.961995 45.065979 109.2866 47.294705 119.52515 51.763916 L 119.52515 88.202576 C 108.55527 82.189456 99.653227 79.183105 92.82752 79.183105 C 88.277051 79.183105 84.654311 80.327427 81.972784 82.602661 C 79.372515 84.796638 78.082647 87.847217 78.082647 91.74762 C 78.082647 98.573323 84.21235 106.24259 96.482367 114.77472 C 103.79562 119.81274 111.18665 126.92553 118.66242 136.10773 C 126.21945 145.20866 130.00342 155.76728 130.00342 167.79352 C 130.00342 181.85122 125.09081 193.52561 115.25855 202.78906 C 105.42628 211.97126 92.945727 216.5614 77.831671 216.5614 C 67.511856 216.5614 57.275712 214.11152 47.118414 209.23602 L 47.118414 171.33856 C 58.819621 178.16427 68.644838 181.58154 76.60816 181.58154 C 81.239888 181.58154 84.906858 180.32022 87.588385 177.80121 C 90.269911 175.20094 91.60401 171.78366 91.60401 167.55823 C 91.60401 164.3079 90.503919 161.25731 88.309942 158.41327 C 86.197224 155.56923 82.501711 152.12341 77.219915 148.06049 C 64.46235 138.30948 55.193607 129.24621 49.424261 120.87659 C 43.736174 112.42572 40.906744 103.03997 40.906744 92.720154 C 40.906744 78.662453 45.335652 67.209215 54.192816 58.352051 C 63.04998 49.494887 74.503218 45.065979 88.560919 45.065979 z M 175.53998 49.567871 L 212.46491 49.567871 L 212.46491 166.58569 C 212.46491 181.61849 208.53538 193.76091 200.65333 203.02435 C 192.85253 212.20654 182.48368 216.79669 169.5636 216.79669 C 161.43778 216.79669 153.43035 214.56796 145.54828 210.09875 L 145.54828 173.04834 C 152.9428 177.92383 158.26634 180.35803 161.51667 180.35803 C 170.86138 180.35803 175.53998 174.41809 175.53998 162.55438 L 175.53998 49.567871 z " /><g
     inkscape:groupmode="layer"
     id="layer1"
     inkscape:label="Layer 1" /></svg>
